<svg xmlns="http://www.w3.org/2000/svg" xml:space="preserve" width="1500" height="357" data-id="lg_Np1rjulyipW5IgoDBS" data-version="1" viewBox="0 0 1500 357"><g data-padding="20"><g transform="translate(10 6.364)scale(.96435)"><rect width="584.199" height="99.44" x="90.564" y="-268.359" fill="none" rx="0" ry="0" transform="matrix(.96 0 0 .96 400 493)"/><path fill="#1b4571" d="M535.267 310.792q-7.344 0-13.219-2.237t-10.032-6.403q-4.157-4.157-6.355-9.878-2.198-5.732-2.198-12.7 0-9.035 3.676-16.158 3.677-7.114 10.56-11.165 6.884-4.06 16.474-4.06 2.91 0 5.76.383 2.851.375 5.472 1.008t4.877 1.46q2.265.825 4.041 1.756l-1.056 12.922q-3.302-2.064-6.336-3.312-3.043-1.248-5.856-1.814-2.803-.576-5.337-.576-5.155 0-9.168 2.265-4.013 2.256-6.317 6.624-2.304 4.378-2.304 10.666 0 4.013 1.18 7.584 1.191 3.571 3.572 6.317 2.39 2.745 5.98 4.31t8.4 1.565q1.988 0 3.994-.279 2.007-.278 4.032-.864 2.036-.595 4.061-1.632 2.026-1.027 4.051-2.505l.76 12.75q-1.816 1.016-4.014 1.775-2.189.758-4.618 1.248t-4.992.72q-2.553.23-5.088.23m38.487-1.15h-13.94q1.604-4.859 3.351-10.225 1.757-5.357 3.322-10.176l6.796-20.66q1.815-5.616 3.293-10.108 1.48-4.503 2.957-9.063h17.914q1.516 4.733 2.976 9.207t3.273 9.964l6.72 20.698q1.642 4.992 3.36 10.272 1.71 5.28 3.274 10.09h-14.363q-1.353-4.81-2.793-9.86-1.43-5.05-2.746-9.57l-8.275-29.022h-1.018l-8.36 28.724q-1.355 4.694-2.853 9.82Zm30.153-12.587H574.34l1.48-10.387h26.908Zm34.388 12.586h-13.642v-60.23h23.098q7.353 0 12.441 1.622 5.088 1.632 7.728 5.433t2.64 10.35q0 5.193-2.045 9.33t-6.566 6.547-11.827 2.41l5.366-5.069 8.19 12.077q1.9 2.794 4.06 5.98 2.15 3.188 4.195 6.212 2.054 3.014 3.62 5.338H659.79q-2.275-3.543-4.387-6.797t-4.1-6.336l-9.753-15.38 8.237 6.298H635.8V277.5h10.05q3.38 0 5.684-.826t3.485-2.813q1.18-1.977 1.18-5.443 0-2.582-.758-4.166t-2.045-2.467q-1.286-.884-2.87-1.18t-3.197-.299h-18.92l9.887-8.697v48.614Zm85.152 0H683.07v-60.23h40.003v11.356H690.04l6.633-9.158v55.833l-5.75-9.158h32.525Zm-18.922-25.085h-11.02v-10.56h28.214v10.56h-7.863Zm69.312 25.085H733.46v-60.23h40.004v11.356H740.43l6.634-9.158v55.833l-5.75-9.158h32.524Zm-18.922-25.085h-11.02v-10.56h28.214v10.56h-7.853Zm42.576 25.085h-13.64v-60.23h23.106q7.354 0 12.442 1.622 5.088 1.632 7.728 5.433t2.64 10.35q0 5.193-2.045 9.33-2.055 4.138-6.576 6.547-4.512 2.41-11.827 2.41l5.366-5.069 8.198 12.077q1.901 2.794 4.052 5.98 2.16 3.188 4.204 6.212 2.045 3.014 3.61 5.338h-15.754q-2.284-3.543-4.396-6.797t-4.09-6.336l-9.763-15.38 8.237 6.298h-13.978V277.5h10.051q3.38 0 5.683-.826t3.485-2.813q1.181-1.977 1.181-5.443 0-2.582-.758-4.166t-2.055-2.467q-1.286-.884-2.87-1.18t-3.187-.299h-18.922l9.878-8.697v48.614Zm85.412 0h-40.59v-60.23h13.892v57.993l-4.81-9.888h31.508Zm22.896 0h-14.19v-60.23h14.19v50.812Zm25.132 0h-13.008v-60.23h12.125q4.224 6.162 7.978 11.634 3.763 5.472 7.517 10.964l9.801 14.188h1.018V249.41h13.046v60.23h-11.99q-3.466-5.068-7.267-10.56-3.802-5.49-8.324-11.99l-9.926-14.36h-.97v27.493Zm101.8 0h-16.772q-2.784-4.013-5.26-7.536-2.468-3.533-4.83-6.95l-7.949-11.367h-3.878v-10.896h3.715l7.094-9.293q2.535-3.293 5.03-6.566 2.487-3.274 5.78-7.623h16.013q-3.927 4.771-7.67 9.38-3.735 4.598-7.498 9.292l-9.543 11.78-.25-6.125 10.6 14.66 5.26 7.266q2.803 3.888 5.472 7.555 2.66 3.677 4.685 6.423m-37.594 0h-13.853v-60.23h13.853v50.812Z"/><rect width="489.216" height="36.16" x="138.056" y="-236.719" fill="none" rx="0" ry="0" transform="matrix(.96 0 0 .96 393.12 549.573)"/><path fill="#1b4571" d="M546.485 349.316h-6.816V327.42h8.044q1.92 0 3.264.355 1.344.365 2.19 1.037.844.662 1.247 1.613.394.96.394 2.15 0 1.402-.5 2.448-.508 1.046-1.382 1.738-.864.69-1.968 1.027v.278q1.133.211 2.15.797 1.01.586 1.642 1.66.634 1.086.634 2.775 0 1.296-.442 2.39-.44 1.095-1.44 1.911-1.008.816-2.726 1.267-1.709.451-4.29.451m-4.1-2.304h4.32q2.083 0 3.37-.47 1.276-.48 1.852-1.354.576-.873.576-2.092 0-2.007-1.41-2.88-1.413-.864-3.966-.864h-5.357v-2.228h5.357q1.69 0 2.765-.556 1.065-.548 1.555-1.44t.49-1.95q0-1.794-1.114-2.63-1.114-.825-3.312-.825h-5.127v14.678Zm19.842 2.304h-2.726V327.42h7.41q2.497 0 4.167.585 1.67.596 2.506 1.901t.835 3.437q0 1.805-.7 3.293-.702 1.488-2.324 2.39-1.632.893-4.406.912l.873-1.219 3.456 4.32q.816.998 1.72 2.131.901 1.143 1.765 2.227.864 1.076 1.536 1.92h-3.254q-1.095-1.382-2.103-2.668-.998-1.287-1.987-2.516l-3.926-5.068 1.7 1.363h-5.022v-2.285h4.166q1.92 0 3.16-.45 1.247-.443 1.861-1.43.615-1 .615-2.64 0-1.365-.442-2.16-.432-.789-1.152-1.154-.71-.374-1.546-.48-.825-.105-1.593-.105h-6.45l1.861-1.91v17.99Zm20.727 0h-2.832V327.42h2.832v18.384Zm5.712 0V327.42h7.69q2.534 0 4.502.73t3.312 2.13q1.344 1.412 2.045 3.418.7 2.016.7 4.58 0 2.323-.614 4.32-.614 2.006-1.958 3.523-1.344 1.507-3.523 2.352-2.17.844-5.29.844h-4.627Zm2.774-2.313h4.11q3.13 0 4.991-1.143 1.853-1.152 2.67-3.139t.815-4.493q0-1.92-.49-3.484-.48-1.565-1.468-2.688t-2.535-1.719q-1.545-.605-3.648-.605h-4.445v14.66Zm30.221 2.64q-2.86 0-5.03-.855-2.18-.854-3.648-2.39-1.479-1.536-2.237-3.6t-.758-4.474q0-3.302 1.353-5.865 1.363-2.554 3.84-3.994 2.487-1.45 5.847-1.45 1.152 0 2.236.154t2.045.423 1.767.576 1.382.614l-.24 2.678q-1.277-.71-2.477-1.152-1.2-.432-2.333-.633-1.132-.202-2.208-.202-1.833 0-3.36.605-1.526.595-2.65 1.747-1.122 1.152-1.727 2.794-.605 1.641-.605 3.715 0 1.882.528 3.504.528 1.632 1.632 2.86 1.094 1.23 2.803 1.911 1.7.682 4.032.682.864 0 1.728-.087.855-.076 1.69-.268.845-.192 1.651-.5.816-.297 1.584-.71l.326 2.611q-.528.25-1.296.48-.777.23-1.728.423-.96.192-2.006.297-1.056.106-2.14.106m7.17-1.306-2.63.048v-10.06h2.63v7.21Zm7.853.98h-2.823V327.42h2.823v18.384Zm8.361 0h-2.64V327.42h2.496q1.968 2.765 3.783 5.328t3.58 5.05l4.743 6.7h.23V327.42h2.64v21.897h-2.467l-3.427-4.838q-1.795-2.544-3.946-5.587l-4.78-6.74h-.212v13.652Zm30.883.326q-2.85 0-5.03-.855-2.17-.854-3.648-2.39-1.469-1.536-2.227-3.6-.768-2.064-.768-4.474 0-3.302 1.363-5.865 1.363-2.554 3.84-3.994 2.477-1.45 5.846-1.45 1.152 0 2.237.154 1.075.154 2.035.423t1.767.576 1.392.614l-.24 2.678q-1.277-.71-2.477-1.152-1.2-.432-2.333-.633-1.142-.202-2.217-.202-1.824 0-3.35.605-1.527.595-2.65 1.747-1.124 1.152-1.728 2.794-.605 1.641-.605 3.715 0 1.882.528 3.504.528 1.632 1.622 2.86 1.104 1.23 2.803 1.911 1.71.682 4.042.682.864 0 1.718-.087.864-.076 1.7-.268t1.65-.5q.817-.297 1.585-.71l.326 2.611q-.528.25-1.305.48-.768.23-1.728.423-.95.192-1.997.297-1.056.106-2.15.106m7.18-1.306-2.63.048v-10.06h2.63v7.21Zm17.204 1.325q-1.363 0-2.755-.26-1.392-.249-2.563-.623-1.18-.384-1.9-.768l.258-2.62q1.037.565 2.15.988 1.114.422 2.266.653 1.162.23 2.38.23 1.364 0 2.458-.374 1.104-.375 1.738-1.2.643-.826.643-2.16 0-1.162-.662-1.93-.663-.758-1.91-1.306-1.258-.556-3.034-1.113-2.093-.653-3.57-1.42-1.47-.769-2.248-1.9-.777-1.135-.777-2.88 0-1.71.806-3.055.806-1.353 2.41-2.13 1.593-.778 3.955-.778.99 0 1.95.144.96.134 1.832.374.874.24 1.594.528.73.288 1.23.595l-.27 2.65q-.94-.634-1.987-1.056t-2.074-.634q-1.027-.2-1.9-.2-1.249 0-2.295.363-1.037.375-1.68 1.133-.634.76-.634 1.96 0 1.045.538 1.736t1.7 1.23q1.151.546 2.985 1.132 2.64.825 4.156 1.68 1.508.854 2.15 1.977.634 1.124.634 2.746 0 1.795-.787 3.216-.797 1.411-2.467 2.237-1.68.835-4.32.835m28.512-.346h-3.485q-1.459-1.574-2.745-2.966t-2.496-2.717l-4.167-4.493h-1.497v-2.294h1.488l3.61-3.763q1.276-1.315 2.514-2.62 1.248-1.307 2.89-3.044h3.38q-1.69 1.737-3.294 3.398-1.603 1.67-3.206 3.331l-4.05 4.224-.049-1.228 4.502 4.953q1.056 1.143 2.247 2.458 1.19 1.325 2.342 2.573 1.152 1.238 2.016 2.188m-14.074 0h-2.774V327.42h2.774v18.384Zm20.717 0h-2.823V327.42h2.823v18.384Zm19.401 0h-13.69V327.42h2.785v21.475l-1.047-2.045h11.952Zm17.587 0h-13.69V327.42h2.785v21.475l-1.047-2.045h11.952Zm10.263.346q-1.373 0-2.765-.26-1.382-.249-2.563-.623-1.17-.384-1.89-.768l.258-2.62q1.027.565 2.14.988 1.114.422 2.276.653 1.161.23 2.371.23 1.363 0 2.467-.374 1.095-.375 1.738-1.2.633-.826.633-2.16 0-1.162-.662-1.93-.662-.758-1.91-1.306-1.248-.556-3.034-1.113-2.093-.653-3.562-1.42-1.478-.769-2.256-1.9-.768-1.135-.768-2.88 0-1.71.807-3.055.806-1.353 2.4-2.13 1.593-.778 3.965-.778.98 0 1.94.144.96.134 1.832.374.884.24 1.604.528t1.228.595l-.278 2.65q-.94-.634-1.978-1.056-1.046-.423-2.073-.634-1.037-.2-1.91-.2-1.239 0-2.285.363-1.047.375-1.68 1.133-.644.76-.644 1.96 0 1.045.538 1.736t1.7 1.23q1.16.546 2.985 1.132 2.64.825 4.157 1.68t2.15 1.977q.634 1.124.634 2.746 0 1.795-.788 3.216-.787 1.411-2.467 2.237-1.67.835-4.31.835m25.94-.346h-2.785v-21.504l1.114 2.074h-8.62v-2.467h17.787v2.467h-8.62l1.122-2.074v17.99Zm21.091.346q-2.775 0-4.867-.902-2.084-.903-3.476-2.477-1.392-1.575-2.083-3.61-.69-2.045-.69-4.32 0-3.197 1.295-5.76t3.754-4.07q2.457-1.507 5.98-1.507 2.67 0 4.724.873 2.044.883 3.446 2.43 1.402 1.554 2.102 3.61.71 2.063.71 4.405 0 3.245-1.295 5.798-1.287 2.564-3.725 4.042-2.448 1.488-5.875 1.488m-.077-2.4q2.112 0 3.63-.73t2.514-1.987q.99-1.257 1.46-2.87.48-1.603.48-3.34 0-1.873-.52-3.495-.508-1.613-1.535-2.842-1.018-1.22-2.525-1.9-1.507-.682-3.504-.682-2.054 0-3.58.72t-2.545 1.977q-1.017 1.248-1.517 2.851-.508 1.604-.508 3.37 0 1.786.49 3.38.49 1.602 1.497 2.85 1.008 1.258 2.544 1.978t3.62.72m27.618 2.4q-1.373 0-2.765-.26-1.383-.249-2.563-.623-1.172-.384-1.892-.768l.26-2.62q1.027.565 2.14.988 1.114.422 2.276.653 1.161.23 2.37.23 1.364 0 2.468-.374 1.094-.375 1.738-1.2.633-.826.633-2.16 0-1.162-.662-1.93-.663-.758-1.91-1.306-1.249-.556-3.034-1.113-2.093-.653-3.562-1.42-1.478-.769-2.256-1.9-.768-1.135-.768-2.88 0-1.71.807-3.055.806-1.353 2.4-2.13 1.593-.778 3.964-.778.98 0 1.94.144.96.134 1.833.374.883.24 1.603.528t1.23.595l-.28 2.65q-.94-.634-1.977-1.056-1.046-.423-2.073-.634-1.037-.2-1.91-.2-1.24 0-2.286.363-1.046.375-1.68 1.133-.643.76-.643 1.96 0 1.045.538 1.736t1.7 1.23q1.161.546 2.985 1.132 2.64.825 4.156 1.68t2.15 1.977q.634 1.124.634 2.746 0 1.795-.787 3.216-.787 1.411-2.467 2.237-1.67.835-4.31.835m20.044.01q-3.062 0-4.972-1.056t-2.813-2.966q-.893-1.91-.893-4.464V327.43h2.765v13.488q0 1.977.576 3.408.585 1.43 1.881 2.19 1.306.757 3.456.757 2.16 0 3.447-.758 1.277-.759 1.853-2.19.566-1.43.566-3.446v-13.45h2.765v13.758q0 2.553-.912 4.464-.903 1.91-2.803 2.966-1.91 1.056-4.916 1.056m23.972-.01q-2.592 0-4.676-.845t-3.542-2.38q-1.46-1.527-2.237-3.59-.768-2.065-.768-4.513 0-3.312 1.363-5.875 1.364-2.554 3.792-3.994 2.43-1.45 5.655-1.45 1.094 0 2.121.154t1.95.413q.92.27 1.708.576.778.307 1.344.624l-.24 2.678q-1.2-.71-2.333-1.152-1.123-.432-2.208-.633-1.085-.202-2.112-.202-2.36 0-4.205 1.075t-2.899 3.063q-1.056 1.997-1.056 4.742 0 1.824.547 3.437.548 1.613 1.632 2.842t2.688 1.93 3.735.7q.787 0 1.574-.096.778-.106 1.546-.317.768-.22 1.517-.576.74-.365 1.468-.854l.212 2.64q-.644.413-1.42.72-.779.307-1.633.5-.845.191-1.738.287t-1.785.096m21.043 0q-2.592 0-4.675-.845t-3.543-2.38q-1.459-1.527-2.237-3.59-.768-2.065-.768-4.513 0-3.312 1.364-5.875 1.363-2.554 3.792-3.994 2.428-1.45 5.654-1.45 1.094 0 2.122.154t1.948.413q.922.27 1.71.576.777.307 1.343.624l-.24 2.678q-1.2-.71-2.333-1.152-1.123-.432-2.208-.633-1.084-.202-2.112-.202-2.36 0-4.204 1.075t-2.9 3.063q-1.056 1.997-1.056 4.742 0 1.824.548 3.437.547 1.613 1.632 2.842t2.688 1.93 3.734.7q.787 0 1.574-.096.778-.106 1.546-.317.768-.22 1.517-.576.74-.365 1.47-.854l.21 2.64q-.643.413-1.42.72t-1.633.5q-.845.191-1.738.287-.892.096-1.785.096m24.758-.346H933.48V327.42h13.603v2.38H934.66l1.536-1.987v21.092l-1.382-1.968h12.297Zm-7.277-9.936h-4.243v-2.313h10.877v2.313h-3.034Zm18.23 10.282q-1.362 0-2.754-.26-1.392-.249-2.564-.623-1.18-.384-1.9-.768l.26-2.62q1.036.565 2.15.988 1.113.422 2.265.653 1.161.23 2.38.23 1.364 0 2.458-.374 1.104-.375 1.738-1.2.643-.826.643-2.16 0-1.162-.662-1.93-.663-.758-1.91-1.306-1.258-.556-3.034-1.113-2.093-.653-3.572-1.42-1.468-.769-2.246-1.9-.778-1.135-.778-2.88 0-1.71.807-3.055.806-1.353 2.41-2.13 1.593-.778 3.955-.778.988 0 1.948.144.96.134 1.834.374t1.594.528q.73.288 1.228.595l-.268 2.65q-.94-.634-1.988-1.056-1.046-.423-2.073-.634-1.027-.2-1.9-.2-1.249 0-2.295.363-1.037.375-1.68 1.133-.634.76-.634 1.96 0 1.045.538 1.736t1.7 1.23q1.151.546 2.984 1.132 2.64.825 4.157 1.68 1.507.854 2.15 1.977.634 1.124.634 2.746 0 1.795-.787 3.216-.797 1.411-2.467 2.237-1.68.835-4.32.835m18.02 0q-1.364 0-2.756-.26-1.392-.249-2.563-.623-1.18-.384-1.9-.768l.258-2.62q1.027.565 2.14.988 1.114.422 2.276.653 1.162.23 2.371.23 1.373 0 2.467-.374 1.104-.375 1.738-1.2.634-.826.634-2.16 0-1.162-.653-1.93-.663-.758-1.92-1.306-1.248-.556-3.034-1.113-2.083-.653-3.56-1.42-1.47-.769-2.248-1.9-.777-1.135-.777-2.88 0-1.71.806-3.055.806-1.353 2.4-2.13 1.603-.778 3.965-.778.99 0 1.95.144.96.134 1.832.374.874.24 1.594.528t1.23.595l-.28 2.65q-.93-.634-1.977-1.056t-2.074-.634q-1.027-.2-1.9-.2-1.249 0-2.295.363-1.047.375-1.68 1.133-.634.76-.634 1.96 0 1.045.538 1.736t1.69 1.23q1.161.546 2.995 1.132 2.64.825 4.147 1.68 1.517.854 2.15 1.977.643 1.124.643 2.746 0 1.795-.796 3.216-.788 1.411-2.458 2.237-1.68.835-4.32.835"/><path fill="#333" d="M766.36 195.514c-17.376 0-34.75-.05-52.126.05-2.5.013-3.913-.775-5.163-2.988a23787 23787 0 0 0-52.137-91.962c-1.2-2.112-1.087-3.675.075-5.7a25715 25715 0 0 0 52.475-92.137c1.2-2.113 2.575-2.813 4.95-2.813q52.275.094 104.55 0c2.338 0 3.7.65 4.913 2.8a17617 17617 0 0 0 51.787 91.088c1.65 2.875 1.638 5.037 0 7.912a16348 16348 0 0 0-51.237 89.975c-1.588 2.813-3.338 3.875-6.6 3.838-17.163-.163-34.325-.075-51.5-.075ZM730.395 40.851v121.8c34.525-19.6 68.513-38.9 103.075-58.525-34.662-21.274-68.587-42.1-103.074-63.274m3.587-4.313c33.812 20.75 66.95 41.088 100.837 61.888-.362-2.738-.525-4.563-.85-6.35-4.75-26.5-9.525-52.988-14.262-79.488-.663-3.713-.688-3.8-4.4-2.587-21.363 6.937-42.713 13.875-64.075 20.825-5.5 1.787-10.975 3.624-17.263 5.7Zm-9.825 123.75V42.352c-19.95 19.174-39.338 37.812-59.025 56.737 19.6 20.325 38.975 40.425 59.025 61.213Zm10.962 6.2c1.188.45 1.738.725 2.3.862 25.113 6.25 50.238 12.513 75.363 18.738 4.05 1 4.037.925 4.975-3.075 5.375-23.075 10.775-46.15 16.138-69.225.237-1.025.312-2.087.574-3.9-33.387 19.013-66.037 37.625-99.362 56.6ZM716.547 5.714c.55 1.425.875 2.4 1.3 3.313 3.15 6.787 6.463 13.5 9.4 20.375 1.113 2.6 2.388 2.725 4.75 1.95 23.3-7.638 46.638-15.188 69.95-22.775 2.338-.763 4.65-1.625 6.963-2.438-.05-.137-.113-.287-.163-.425Zm111.138 15.038c-.238.1-.488.2-.725.312.562 3.15 1.137 6.313 1.687 9.463 4.013 22.6 8.05 45.187 12 67.8.375 2.162 1.063 2.762 3.275 2.212 5.038-1.237 10.163-2.175 15.225-3.3 3.313-.737 6.6-1.587 10.4-2.5-14.1-24.925-27.987-49.462-41.875-73.987Zm-160.538 67.55.45.412c.325-.212.7-.387.988-.662 17.9-17.113 35.775-34.238 53.7-51.313 1.437-1.362 1.325-2.487.575-4.087-3.2-6.763-6.288-13.588-9.45-20.375-.35-.763-.9-1.425-1.638-2.575-15.075 26.562-29.85 52.575-44.625 78.6m202.85 11.912c-9.725 2.075-18.462 3.875-27.125 5.913-.925.212-1.95 1.762-2.212 2.862-5.462 22.925-10.837 45.888-16.2 68.838-.162.7-.175 1.437-.262 2.162.175.038.35.088.525.125 14.937-26.35 29.862-52.687 45.287-79.9Zm-66.65 89.75.075-.375c-.637-.25-1.25-.562-1.912-.725-23.175-5.837-46.363-11.638-69.525-17.512-2.313-.588-3.9-.325-5.1 2.012-1.425 2.763-3.225 5.337-4.825 8-1.625 2.713-3.213 5.45-5.063 8.588h86.35Zm-91.062-3.1c3.375-5.65 6.187-10.725 9.387-15.537 1.7-2.563 1.513-4.126-.637-6.338-15.675-16.05-31.213-32.237-46.8-48.362-.663-.688-1.4-1.3-2.1-1.938-.175.15-.35.287-.525.437 13.437 23.688 26.862 47.375 40.675 71.75Z"/></g><path fill="transparent" stroke="transparent" d="M469.5 0h561v357h-561z"/></g></svg>